<svg id="svg" version="1.1" xmlns="http://www.w3.org/2000/svg" xmlns:xlink="http://www.w3.org/1999/xlink" width="400" height="400" viewBox="0, 0, 400,400"><g id="svgg"><path id="path0" d="M135.723 114.394 C 133.208 115.435,133.411 108.119,133.296 201.926 C 133.225 260.148,133.324 287.377,133.611 288.442 C 134.542 291.898,130.642 291.600,174.975 291.603 C 218.009 291.606,217.437 291.634,229.600 288.840 C 239.872 286.479,252.020 278.047,258.288 268.926 C 269.667 252.369,270.254 224.561,259.535 209.800 C 256.144 205.129,250.926 200.852,245.501 198.295 C 243.049 197.140,243.080 197.009,246.435 194.400 C 258.969 184.652,262.928 166.813,257.221 145.800 C 256.684 143.821,254.163 138.153,253.251 136.872 C 252.783 136.215,252.400 135.562,252.400 135.421 C 252.400 132.171,240.030 121.896,232.400 118.808 C 231.190 118.318,229.840 117.764,229.400 117.578 C 227.722 116.865,224.463 116.049,218.800 114.925 C 214.934 114.157,137.492 113.663,135.723 114.394 M206.486 149.353 C 216.184 151.880,220.954 160.972,218.186 171.656 C 215.600 181.634,211.446 183.264,189.000 183.107 L 173.800 183.000 173.696 165.900 L 173.591 148.800 188.976 148.800 C 200.786 148.800,204.855 148.929,206.486 149.353 M212.200 216.509 C 219.988 218.923,224.242 223.394,225.800 230.802 C 227.862 240.603,223.946 249.903,216.199 253.600 C 210.961 256.101,210.719 256.126,191.400 256.165 L 173.800 256.200 173.696 236.400 C 173.639 225.510,173.683 216.362,173.794 216.071 C 174.113 215.241,209.406 215.643,212.200 216.509 " stroke="none" fill="#fbfbfb" fill-rule="evenodd"></path><path id="path1" d="M42.900 0.295 C 41.401 0.400,40.800 0.608,40.800 1.021 C 40.800 1.441,40.304 1.600,39.000 1.600 C 38.010 1.600,37.200 1.780,37.200 2.000 C 37.200 2.220,36.765 2.400,36.233 2.400 C 35.702 2.400,35.207 2.574,35.133 2.787 C 35.060 3.000,34.420 3.218,33.710 3.272 C 33.001 3.325,32.332 3.601,32.223 3.884 C 32.114 4.168,31.659 4.400,31.213 4.400 C 30.766 4.400,30.400 4.580,30.400 4.800 C 30.400 5.020,29.950 5.200,29.400 5.200 C 28.778 5.200,28.400 5.427,28.400 5.800 C 28.400 6.146,28.039 6.400,27.547 6.400 C 27.078 6.400,26.403 6.734,26.047 7.143 C 25.691 7.551,24.995 8.013,24.500 8.170 C 24.005 8.326,23.600 8.622,23.600 8.827 C 23.600 9.032,23.330 9.200,23.000 9.200 C 22.670 9.200,22.400 9.380,22.400 9.600 C 22.400 9.820,22.124 10.000,21.787 10.000 C 21.451 10.000,21.071 10.270,20.945 10.600 C 20.818 10.930,20.562 11.200,20.376 11.200 C 19.910 11.200,16.000 15.148,16.000 15.619 C 16.000 15.829,15.829 16.000,15.619 16.000 C 15.148 16.000,11.200 19.910,11.200 20.376 C 11.200 20.562,10.930 20.818,10.600 20.945 C 10.270 21.071,10.000 21.451,10.000 21.787 C 10.000 22.124,9.820 22.400,9.600 22.400 C 9.380 22.400,9.200 22.670,9.200 23.000 C 9.200 23.330,9.032 23.600,8.827 23.600 C 8.622 23.600,8.326 24.005,8.170 24.500 C 8.013 24.995,7.551 25.691,7.143 26.047 C 6.734 26.403,6.400 27.078,6.400 27.547 C 6.400 28.039,6.146 28.400,5.800 28.400 C 5.427 28.400,5.200 28.778,5.200 29.400 C 5.200 29.950,5.020 30.400,4.800 30.400 C 4.580 30.400,4.400 30.766,4.400 31.213 C 4.400 31.659,4.168 32.114,3.884 32.223 C 3.601 32.332,3.325 33.001,3.272 33.710 C 3.218 34.420,3.000 35.060,2.787 35.133 C 2.574 35.207,2.400 35.702,2.400 36.233 C 2.400 36.765,2.220 37.200,2.000 37.200 C 1.780 37.200,1.600 38.010,1.600 39.000 C 1.600 40.247,1.434 40.800,1.059 40.800 C 0.040 40.800,-0.000 46.770,-0.000 200.000 C -0.000 353.230,0.040 359.200,1.059 359.200 C 1.434 359.200,1.600 359.753,1.600 361.000 C 1.600 361.990,1.780 362.800,2.000 362.800 C 2.220 362.800,2.400 363.235,2.400 363.767 C 2.400 364.298,2.574 364.793,2.787 364.867 C 3.000 364.940,3.218 365.580,3.272 366.290 C 3.325 366.999,3.601 367.668,3.884 367.777 C 4.168 367.886,4.400 368.341,4.400 368.787 C 4.400 369.234,4.580 369.600,4.800 369.600 C 5.020 369.600,5.200 369.966,5.200 370.413 C 5.200 370.859,5.470 371.329,5.800 371.455 C 6.130 371.582,6.400 371.992,6.400 372.367 C 6.400 372.742,6.738 373.412,7.151 373.855 C 7.564 374.299,8.026 375.053,8.178 375.531 C 8.330 376.009,8.622 376.400,8.827 376.400 C 9.032 376.400,9.200 376.670,9.200 377.000 C 9.200 377.330,9.380 377.600,9.600 377.600 C 9.820 377.600,10.000 377.876,10.000 378.213 C 10.000 378.549,10.270 378.929,10.600 379.055 C 10.930 379.182,11.200 379.444,11.200 379.638 C 11.200 380.129,15.100 384.000,15.595 384.000 C 15.818 384.000,16.000 384.178,16.000 384.395 C 16.000 384.917,19.874 388.800,20.395 388.800 C 20.618 388.800,20.800 389.070,20.800 389.400 C 20.800 389.733,21.156 390.000,21.600 390.000 C 22.040 390.000,22.400 390.180,22.400 390.400 C 22.400 390.620,22.651 390.800,22.957 390.800 C 23.264 390.800,23.618 391.070,23.745 391.400 C 23.871 391.730,24.301 392.000,24.699 392.000 C 25.097 392.000,25.683 392.360,26.000 392.800 C 26.317 393.240,26.968 393.600,27.446 393.600 C 27.923 393.600,28.418 393.870,28.545 394.200 C 28.671 394.530,29.141 394.800,29.587 394.800 C 30.034 394.800,30.400 394.980,30.400 395.200 C 30.400 395.420,30.741 395.600,31.157 395.600 C 31.574 395.600,32.003 395.830,32.111 396.111 C 32.219 396.393,32.913 396.668,33.653 396.724 C 34.394 396.780,35.060 397.000,35.133 397.213 C 35.207 397.426,35.702 397.600,36.233 397.600 C 36.765 397.600,37.200 397.780,37.200 398.000 C 37.200 398.220,38.010 398.400,39.000 398.400 C 40.247 398.400,40.800 398.566,40.800 398.941 C 40.800 399.960,46.770 400.000,200.000 400.000 C 353.230 400.000,359.200 399.960,359.200 398.941 C 359.200 398.566,359.753 398.400,361.000 398.400 C 361.990 398.400,362.800 398.220,362.800 398.000 C 362.800 397.780,363.235 397.600,363.767 397.600 C 364.298 397.600,364.793 397.426,364.867 397.213 C 364.940 397.000,365.606 396.780,366.347 396.724 C 367.087 396.668,367.781 396.393,367.889 396.111 C 367.997 395.830,368.426 395.600,368.843 395.600 C 369.259 395.600,369.600 395.420,369.600 395.200 C 369.600 394.980,370.050 394.800,370.600 394.800 C 371.222 394.800,371.600 394.573,371.600 394.200 C 371.600 393.870,371.926 393.600,372.325 393.600 C 372.723 393.600,373.412 393.262,373.855 392.849 C 374.299 392.436,375.053 391.974,375.531 391.822 C 376.009 391.670,376.400 391.378,376.400 391.173 C 376.400 390.968,376.670 390.800,377.000 390.800 C 377.330 390.800,377.600 390.620,377.600 390.400 C 377.600 390.180,377.960 390.000,378.400 390.000 C 378.844 390.000,379.200 389.733,379.200 389.400 C 379.200 389.070,379.389 388.800,379.619 388.800 C 380.165 388.800,384.000 384.965,384.000 384.419 C 384.000 384.189,384.189 384.000,384.419 384.000 C 384.965 384.000,388.800 380.165,388.800 379.619 C 388.800 379.389,389.070 379.200,389.400 379.200 C 389.733 379.200,390.000 378.844,390.000 378.400 C 390.000 377.960,390.180 377.600,390.400 377.600 C 390.620 377.600,390.800 377.330,390.800 377.000 C 390.800 376.670,390.968 376.400,391.173 376.400 C 391.378 376.400,391.670 376.009,391.822 375.531 C 391.974 375.053,392.436 374.299,392.849 373.855 C 393.262 373.412,393.600 372.723,393.600 372.325 C 393.600 371.926,393.870 371.600,394.200 371.600 C 394.573 371.600,394.800 371.222,394.800 370.600 C 394.800 370.050,394.980 369.600,395.200 369.600 C 395.420 369.600,395.600 369.259,395.600 368.843 C 395.600 368.426,395.830 367.997,396.111 367.889 C 396.393 367.781,396.668 367.087,396.724 366.347 C 396.780 365.606,397.000 364.940,397.213 364.867 C 397.426 364.793,397.600 364.298,397.600 363.767 C 397.600 363.235,397.780 362.800,398.000 362.800 C 398.220 362.800,398.400 361.990,398.400 361.000 C 398.400 359.753,398.566 359.200,398.941 359.200 C 399.960 359.200,400.000 353.230,400.000 200.000 C 400.000 46.770,399.960 40.800,398.941 40.800 C 398.566 40.800,398.400 40.247,398.400 39.000 C 398.400 38.010,398.220 37.200,398.000 37.200 C 397.780 37.200,397.600 36.765,397.600 36.233 C 397.600 35.702,397.426 35.207,397.213 35.133 C 397.000 35.060,396.780 34.394,396.724 33.653 C 396.668 32.913,396.393 32.219,396.111 32.111 C 395.830 32.003,395.600 31.574,395.600 31.157 C 395.600 30.741,395.420 30.400,395.200 30.400 C 394.980 30.400,394.800 30.034,394.800 29.587 C 394.800 29.141,394.530 28.671,394.200 28.545 C 393.870 28.418,393.600 27.923,393.600 27.446 C 393.600 26.968,393.240 26.317,392.800 26.000 C 392.360 25.683,392.000 25.097,392.000 24.699 C 392.000 24.301,391.730 23.871,391.400 23.745 C 391.070 23.618,390.800 23.264,390.800 22.957 C 390.800 22.651,390.620 22.400,390.400 22.400 C 390.180 22.400,390.000 22.040,390.000 21.600 C 390.000 21.156,389.733 20.800,389.400 20.800 C 389.070 20.800,388.800 20.618,388.800 20.395 C 388.800 19.874,384.917 16.000,384.395 16.000 C 384.178 16.000,384.000 15.818,384.000 15.595 C 384.000 15.100,380.129 11.200,379.638 11.200 C 379.444 11.200,379.182 10.930,379.055 10.600 C 378.929 10.270,378.549 10.000,378.213 10.000 C 377.876 10.000,377.600 9.820,377.600 9.600 C 377.600 9.380,377.330 9.200,377.000 9.200 C 376.670 9.200,376.400 9.032,376.400 8.827 C 376.400 8.622,376.009 8.330,375.531 8.178 C 375.053 8.026,374.299 7.564,373.855 7.151 C 373.412 6.738,372.742 6.400,372.367 6.400 C 371.992 6.400,371.582 6.130,371.455 5.800 C 371.329 5.470,370.859 5.200,370.413 5.200 C 369.966 5.200,369.600 5.020,369.600 4.800 C 369.600 4.580,369.234 4.400,368.787 4.400 C 368.341 4.400,367.886 4.168,367.777 3.884 C 367.668 3.601,366.999 3.325,366.290 3.272 C 365.580 3.218,364.940 3.000,364.867 2.787 C 364.793 2.574,364.298 2.400,363.767 2.400 C 363.235 2.400,362.800 2.220,362.800 2.000 C 362.800 1.780,361.990 1.600,361.000 1.600 C 359.753 1.600,359.200 1.434,359.200 1.059 C 359.200 0.673,358.318 0.443,356.140 0.259 C 353.006 -0.006,46.698 0.029,42.900 0.295 M218.800 114.925 C 224.463 116.049,227.722 116.865,229.400 117.578 C 229.840 117.764,231.190 118.318,232.400 118.808 C 240.030 121.896,252.400 132.171,252.400 135.421 C 252.400 135.562,252.783 136.215,253.251 136.872 C 254.163 138.153,256.684 143.821,257.221 145.800 C 262.928 166.813,258.969 184.652,246.435 194.400 C 243.080 197.009,243.049 197.140,245.501 198.295 C 250.926 200.852,256.144 205.129,259.535 209.800 C 270.254 224.561,269.667 252.369,258.288 268.926 C 252.020 278.047,239.872 286.479,229.600 288.840 C 217.437 291.634,218.009 291.606,174.975 291.603 C 130.642 291.600,134.542 291.898,133.611 288.442 C 133.324 287.377,133.225 260.148,133.296 201.926 C 133.411 108.119,133.208 115.435,135.723 114.394 C 137.492 113.663,214.934 114.157,218.800 114.925 M173.696 165.900 L 173.800 183.000 189.000 183.107 C 205.430 183.222,207.165 183.056,211.199 180.991 C 221.785 175.572,221.351 155.896,210.533 150.810 C 206.489 148.910,205.313 148.800,188.976 148.800 L 173.591 148.800 173.696 165.900 M173.794 216.071 C 173.683 216.362,173.639 225.510,173.696 236.400 L 173.800 256.200 191.400 256.165 C 210.719 256.126,210.961 256.101,216.199 253.600 C 223.946 249.903,227.862 240.603,225.800 230.802 C 224.242 223.394,219.988 218.923,212.200 216.509 C 209.406 215.643,174.113 215.241,173.794 216.071 " stroke="none" fill="#ecacac" fill-rule="evenodd"></path></g></svg>